<svg width="50" height="32" viewBox="0 0 50 32" fill="none" xmlns="http://www.w3.org/2000/svg">
<path d="M14.1666 6.8333C14.6666 6.8333 14.9999 6.5 14.9999 6C14.9999 5.5 15.3332 5.1667 15.8332 5.1667C16.3332 5.1667 16.6665 4.8334 16.6665 4.3334C16.6665 3.8334 16.3332 3.5 15.8332 3.5C14.4166 3.5 13.3333 4.5833 13.3333 6C13.3333 6.5 13.6666 6.8333 14.1666 6.8333Z" fill="#231F20"/>
<path d="M8.33328 16.8333C8.83328 16.8333 9.16658 16.5 9.16658 16C9.16658 15.5 9.49988 15.1667 9.99988 15.1667C10.4999 15.1667 10.8332 14.8334 10.8332 14.3334C10.8332 13.8334 10.4999 13.5001 9.99988 13.5001C8.58318 13.5001 7.49988 14.5834 7.49988 16.0001C7.49998 16.5 7.83328 16.8333 8.33328 16.8333Z" fill="#231F20"/>
<path d="M6.66668 24.3333C6.66668 23.8333 6.33337 23.5 5.83337 23.5C4.41668 23.5 3.33337 24.5833 3.33337 26C3.33337 26.5 3.66667 26.8333 4.16668 26.8333C4.66668 26.8333 4.99998 26.5 4.99998 26C4.99998 25.5 5.33328 25.1667 5.83328 25.1667C6.33328 25.1667 6.66668 24.8333 6.66668 24.3333Z" fill="#231F20"/>
<path d="M15.8332 23.5C14.4166 23.5 13.3333 24.5833 13.3333 26C13.3333 26.5 13.6666 26.8333 14.1666 26.8333C14.6666 26.8333 14.9999 26.5 14.9999 26C14.9999 25.5 15.3332 25.1667 15.8332 25.1667C16.3332 25.1667 16.6665 24.8334 16.6665 24.3334C16.6665 23.8334 16.3332 23.5 15.8332 23.5Z" fill="#231F20"/>
<path d="M28.3333 8.49998H33.3333C33.8333 8.49998 34.1666 8.16668 34.1666 7.66668C34.1666 7.16668 33.8333 6.83337 33.3333 6.83337H28.3333C27.8333 6.83337 27.5 7.16668 27.5 7.66668C27.5 8.16668 27.8333 8.49998 28.3333 8.49998Z" fill="#231F20"/>
<path d="M29.1667 5.1667H30C30.5 5.1667 30.8333 4.8334 30.8333 4.3334C30.8333 3.8334 30.5 3.5 30 3.5H29.1667C28.6667 3.5 28.3334 3.8333 28.3334 4.3333C28.3334 4.8333 28.6667 5.1667 29.1667 5.1667Z" fill="#231F20"/>
<path d="M18.3333 16.8333C18.8333 16.8333 19.1666 16.5 19.1666 16C19.1666 15.5 19.4999 15.1667 19.9999 15.1667C20.4999 15.1667 20.8332 14.8334 20.8332 14.3334C20.8332 13.8334 20.4999 13.5001 19.9999 13.5001C18.5832 13.5001 17.4999 14.5834 17.4999 16.0001C17.5 16.5 17.8333 16.8333 18.3333 16.8333Z" fill="#231F20"/>
<path d="M32.5 18.5H37.5C38 18.5 38.3333 18.1667 38.3333 17.6667C38.3333 17.1667 38 16.8334 37.5 16.8334H32.5C32 16.8334 31.6667 17.1667 31.6667 17.6667C31.6667 18.1667 32 18.5 32.5 18.5Z" fill="#231F20"/>
<path d="M33.3333 15.1667H34.1666C34.6666 15.1667 34.9999 14.8334 34.9999 14.3334C34.9999 13.8334 34.6666 13.5001 34.1666 13.5001H33.3333C32.8333 13.5001 32.5 13.8334 32.5 14.3334C32.5 14.8334 32.8333 15.1667 33.3333 15.1667Z" fill="#231F20"/>
<path d="M25.8332 23.5C24.4166 23.5 23.3333 24.5833 23.3333 26C23.3333 26.5 23.6666 26.8333 24.1666 26.8333C24.6666 26.8333 24.9999 26.5 24.9999 26C24.9999 25.5 25.3332 25.1667 25.8332 25.1667C26.3332 25.1667 26.6666 24.8334 26.6666 24.3334C26.6666 23.8334 26.3332 23.5 25.8332 23.5Z" fill="#231F20"/>
<path d="M43.3333 26.8333H38.3333C37.8333 26.8333 37.5 27.1666 37.5 27.6666C37.5 28.1666 37.8333 28.4999 38.3333 28.4999H43.3333C43.8333 28.4999 44.1666 28.1666 44.1666 27.6666C44.1666 27.1666 43.8333 26.8333 43.3333 26.8333Z" fill="#231F20"/>
<path d="M39.1667 25.1667H40C40.5 25.1667 40.8333 24.8334 40.8333 24.3334C40.8333 23.8334 40.5 23.5001 40 23.5001H39.1667C38.6667 23.5001 38.3334 23.8334 38.3334 24.3334C38.3334 24.8334 38.6667 25.1667 39.1667 25.1667Z" fill="#231F20"/>
<path d="M49.7473 27.72C49.9114 27.1773 50 26.6002 50 26C50 25.4006 49.9115 24.8242 49.7479 24.2822C49.7386 24.0857 49.6772 23.9167 49.5727 23.7869C48.7104 21.6522 46.6307 20.1666 44.1666 20.1666H42.4359C43.0109 19.6005 43.4663 18.914 43.7656 18.1458C43.85 18.0275 43.9039 17.8833 43.9139 17.72C44.078 17.1773 44.1666 16.6002 44.1666 16C44.1666 15.4006 44.0781 14.8242 43.9145 14.2822C43.9052 14.0857 43.8438 13.9167 43.7393 13.787C42.877 11.6523 40.7973 10.1667 38.3332 10.1667H38.2691C38.8441 9.60057 39.2995 8.91415 39.5988 8.14579C39.6831 8.02753 39.7371 7.88329 39.7471 7.72001C39.9112 7.17733 39.9999 6.60018 39.9999 5.99999C39.9999 5.40057 39.9114 4.82421 39.7478 4.28221C39.7385 4.08573 39.6771 3.91669 39.5727 3.787C38.7104 1.65233 36.6307 0.166687 34.1666 0.166687H15.8333C12.5833 0.166687 10 2.74999 10 5.99999C10 7.87938 10.865 9.53466 12.2222 10.5975C11.5389 10.3202 10.7894 10.1667 10 10.1667C6.75 10.1667 4.1667 12.75 4.1667 16C4.1667 17.6424 4.82705 19.1138 5.89912 20.1682C5.87715 20.1681 5.85547 20.1666 5.8334 20.1666C2.5833 20.1667 0 22.75 0 26C0 29.25 2.5833 31.8333 5.8333 31.8333H15.8333H25.8333H44.1666C46.6564 31.8333 48.7534 30.3163 49.5989 28.1458C49.6833 28.0275 49.7373 27.8833 49.7473 27.72ZM38.3333 11.8333C39.7218 11.8333 40.933 12.4826 41.6864 13.5H37.5C37 13.5 36.6667 13.8333 36.6667 14.3333C36.6667 14.8333 37 15.1666 37.5 15.1666H42.4194C42.4722 15.4352 42.5 15.7138 42.5 15.9999C42.5 16.286 42.4721 16.5645 42.4194 16.8332H40.8334C40.3334 16.8332 40.0001 17.1665 40.0001 17.6665C40.0001 18.1665 40.3334 18.4998 40.8334 18.4998H41.6865C40.9331 19.5172 39.7219 20.1665 38.3334 20.1665H25.8334H24.1027C24.588 19.6889 24.9885 19.1258 25.2815 18.4998H28.3334C28.8334 18.4998 29.1667 18.1665 29.1667 17.6665C29.1667 17.1665 28.8334 16.8332 28.3334 16.8332H25.7746C25.7854 16.7565 25.7957 16.6797 25.8035 16.6018C25.8048 16.5888 25.8053 16.5753 25.8065 16.5622C25.8145 16.4767 25.8216 16.3909 25.8259 16.3039C25.831 16.2032 25.8335 16.1019 25.8335 15.9999C25.8335 15.8978 25.831 15.7965 25.8259 15.6959C25.8216 15.609 25.8146 15.5231 25.8065 15.4376C25.8053 15.4244 25.8049 15.411 25.8035 15.3979C25.7957 15.32 25.7854 15.2432 25.7746 15.1666H30C30.5 15.1666 30.8333 14.8333 30.8333 14.3333C30.8333 13.8333 30.5 13.5 30 13.5H25.2814C24.9883 12.8741 24.5878 12.311 24.1026 11.8333H34.1667H38.3333ZM25.8333 30.1667C23.5 30.1667 21.6666 28.3334 21.6666 26C21.6666 23.6667 23.4999 21.8333 25.8333 21.8333C28.1666 21.8333 30 23.6666 30 26C30 28.3333 28.1667 30.1667 25.8333 30.1667ZM15.8333 30.1667C13.5 30.1667 11.6666 28.3334 11.6666 26C11.6666 23.6667 13.4999 21.8333 15.8333 21.8333C18.1666 21.8333 20 23.6666 20 26C20 28.3333 18.1667 30.1667 15.8333 30.1667ZM20 11.8333C22.3333 11.8333 24.1667 13.6666 24.1667 16C24.1667 18.3334 22.3334 20.1667 20 20.1667C17.6667 20.1667 15.8333 18.3334 15.8333 16C15.8333 13.6666 17.6667 11.8333 20 11.8333ZM20 21.8333H21.7307C21.3864 22.1723 21.0842 22.5537 20.8333 22.9706C20.5819 22.553 20.2792 22.171 19.9342 21.8316C19.9563 21.8319 19.9779 21.8333 20 21.8333ZM15.8991 20.1682C15.8771 20.1681 15.8555 20.1666 15.8334 20.1666C15.044 20.1666 14.2945 20.3201 13.6112 20.5974C14.1641 20.1644 14.6359 19.6342 15.0001 19.0293C15.2514 19.447 15.5541 19.829 15.8991 20.1682ZM34.1667 1.83329C35.5552 1.83329 36.7664 2.4826 37.5198 3.49999H33.3333C32.8333 3.49999 32.5 3.83329 32.5 4.33329C32.5 4.83329 32.8333 5.16659 33.3333 5.16659H38.2527C38.3055 5.43524 38.3333 5.71376 38.3333 5.99989C38.3333 6.28602 38.3054 6.56454 38.2527 6.83319H36.6667C36.1667 6.83319 35.8334 7.16649 35.8334 7.66649C35.8334 8.16649 36.1667 8.49979 36.6667 8.49979H37.5198C36.7664 9.51717 35.5552 10.1665 34.1667 10.1665H20H19.9359C20.4212 9.68885 20.8217 9.12577 21.1147 8.49979H24.1666C24.6666 8.49979 24.9999 8.16649 24.9999 7.66649C24.9999 7.16649 24.6666 6.83319 24.1666 6.83319H21.6078C21.6186 6.75653 21.6289 6.67968 21.6367 6.60184C21.638 6.58876 21.6385 6.57528 21.6397 6.56219C21.6477 6.47674 21.6548 6.39091 21.6591 6.30389C21.6642 6.20321 21.6667 6.10194 21.6667 5.99989C21.6667 5.89784 21.6642 5.79647 21.6591 5.69589C21.6548 5.60897 21.6478 5.52313 21.6397 5.43759C21.6385 5.4244 21.6381 5.41102 21.6367 5.39794C21.6289 5.32001 21.6186 5.24325 21.6078 5.16659H25.8333C26.3333 5.16659 26.6666 4.83329 26.6666 4.33329C26.6666 3.83329 26.3333 3.49999 25.8333 3.49999H21.1147C20.8216 2.87411 20.4211 2.31102 19.9359 1.83329H34.1667ZM11.6667 5.99999C11.6667 3.66669 13.5 1.83329 15.8334 1.83329C18.1667 1.83329 20.0001 3.66659 20.0001 5.99999C20.0001 8.33329 18.1668 10.1667 15.8334 10.1667C13.5 10.1667 11.6667 8.33329 11.6667 5.99999ZM15.8333 11.8333H15.8974C15.5531 12.1723 15.2509 12.5537 15 12.9706C14.6359 12.3657 14.1641 11.8353 13.6111 11.4024C14.2944 11.6798 15.0439 11.8333 15.8333 11.8333ZM5.8333 16C5.8333 13.6667 7.6666 11.8333 10 11.8333C12.3333 11.8333 14.1667 13.6666 14.1667 16C14.1667 18.3334 12.3334 20.1667 10 20.1667C7.6667 20.1667 5.8333 18.3333 5.8333 16ZM10 21.8333C10.7894 21.8333 11.5389 21.6798 12.2222 21.4024C11.6693 21.8354 11.1975 22.3657 10.8333 22.9706C10.5819 22.553 10.2792 22.171 9.93418 21.8316C9.95625 21.8319 9.97793 21.8333 10 21.8333ZM1.6667 26C1.6667 23.6667 3.5 21.8333 5.8334 21.8333C8.1668 21.8333 10 23.6667 10 26C10 28.3333 8.1667 30.1667 5.8333 30.1667C3.4999 30.1667 1.6667 28.3333 1.6667 26ZM9.93594 30.1667C10.2802 29.8277 10.5824 29.4463 10.8333 29.0294C11.0843 29.4463 11.3864 29.8277 11.7307 30.1667H9.93594ZM19.9359 30.1667C20.2802 29.8277 20.5824 29.4463 20.8333 29.0294C21.0843 29.4463 21.3864 29.8277 21.7307 30.1667H19.9359ZM44.1667 30.1667H29.9359C30.4212 29.689 30.8217 29.126 31.1147 28.5H34.1666C34.6666 28.5 34.9999 28.1667 34.9999 27.6667C34.9999 27.1667 34.6666 26.8334 34.1666 26.8334H31.6078C31.6186 26.7567 31.6289 26.6799 31.6367 26.602C31.638 26.5889 31.6385 26.5755 31.6397 26.5624C31.6477 26.4769 31.6548 26.3911 31.6591 26.3041C31.6642 26.2034 31.6667 26.1021 31.6667 26.0001C31.6667 25.898 31.6642 25.7967 31.6591 25.6961C31.6548 25.6092 31.6478 25.5233 31.6397 25.4378C31.6385 25.4246 31.6381 25.4112 31.6367 25.3981C31.6289 25.3202 31.6186 25.2434 31.6078 25.1668H35.8333C36.3333 25.1668 36.6666 24.8335 36.6666 24.3335C36.6666 23.8335 36.3333 23.5002 35.8333 23.5002H31.1147C30.8216 22.8743 30.4211 22.3112 29.9359 21.8335H38.3333H44.1666C45.5551 21.8335 46.7663 22.4828 47.5197 23.5002H43.3332C42.8332 23.5002 42.4999 23.8335 42.4999 24.3335C42.4999 24.8335 42.8332 25.1668 43.3332 25.1668H48.2526C48.3054 25.4354 48.3332 25.7139 48.3332 26.0001C48.3332 26.2862 48.3053 26.5647 48.2526 26.8334H46.6666C46.1666 26.8334 45.8333 27.1667 45.8333 27.6667C45.8333 28.1667 46.1666 28.5 46.6666 28.5H47.5197C46.7664 29.5174 45.5551 30.1667 44.1667 30.1667Z" fill="#231F20"/>
</svg>
