<svg width="50" height="50" viewBox="0 0 50 50" fill="none" xmlns="http://www.w3.org/2000/svg">
<path d="M39.0937 39C37.7604 40.25 37.7604 42.3333 39.0937 43.6667C39.7604 44.3334 40.5937 44.6667 41.427 44.6667C42.2603 44.6667 43.0937 44.3334 43.7603 43.6667C45.0936 42.4167 45.0936 40.3334 43.7603 39C42.5104 37.6667 40.427 37.6667 39.0937 39ZM42.5937 42.5833C41.927 43.25 40.927 43.25 40.2604 42.5833C39.5938 41.9166 39.5937 40.9166 40.2604 40.25C40.5937 39.9167 41.0104 39.75 41.4271 39.75C41.8438 39.75 42.2604 39.9167 42.5938 40.25C43.2604 40.9167 43.2604 41.9167 42.5937 42.5833Z" fill="#231F20"/>
<path d="M49.427 40L34.427 25L40.3437 19.0833L40.3438 19.0832L43.8437 15.5833L43.8438 15.5832L48.927 10.5C50.3437 9.0833 50.3437 6.75 48.927 5.3333L44.677 1.0833C44.0104 0.416699 43.0937 0 42.0937 0C41.0937 0 40.177 0.416699 39.5104 1.0833L34.4271 6.1666L30.9271 9.6666L25.0104 15.5833L10.177 0.75C9.26034 -0.166699 7.59374 -0.166699 6.67704 0.75L0.760437 6.6667C-0.239563 7.5834 -0.239563 9.1667 0.760437 10.1667L2.51044 11.9167L7.26044 16.6667L11.927 21.3333C11.927 21.3333 11.927 21.3333 11.9271 21.3334L15.5937 25L2.2162 38.3775C1.96678 38.4876 1.83231 38.7125 1.76044 39L0.010437 49C0.010437 49.3333 0.0937378 49.5833 0.260437 49.75C0.427039 49.9167 0.593738 50 0.843738 50C0.927039 50 0.927039 50 1.01044 50L10.6242 48.2227C10.6907 48.2402 10.7625 48.25 10.8437 48.25C11.0937 48.25 11.3437 48.1667 11.427 48L25.0103 34.4167L26.0936 35.5C26.0936 35.5 26.0936 35.5 26.0937 35.5001L26.0938 35.5002L28.427 37.8334C28.427 37.8334 28.427 37.8334 28.4271 37.8335L28.4272 37.8336L40.0104 49.4168C40.4271 49.8335 40.9271 50.0001 41.4271 50.0001C41.9271 50.0001 42.4271 49.8334 42.7604 49.4168L49.4271 42.7501C50.177 42 50.177 40.75 49.427 40ZM10.8437 46.1667L7.92792 43.2509L35.6346 15.6241L38.5104 18.5L10.8437 46.1667ZM40.677 2.25C41.427 1.5 42.7603 1.5 43.5103 2.25L47.7603 6.5C48.5103 7.25 48.5103 8.5833 47.7603 9.3333L43.2603 13.8333L36.177 6.75L40.677 2.25ZM35.0104 7.9167L38.5521 11.4584L42.0937 15L39.7604 17.3333L32.6771 10.25L35.0104 7.9167ZM16.052 23.125L17.8437 21.3333C18.177 21 18.177 20.5 17.8437 20.1666C17.5104 19.8332 17.0104 19.8333 16.677 20.1666L14.8853 21.9583L13.677 20.75L16.5937 17.8333C16.927 17.5 16.927 17 16.5937 16.6666C16.2604 16.3332 15.7604 16.3333 15.427 16.6666L12.5103 19.5833L11.3436 18.4166L13.0936 16.6666C13.4269 16.3333 13.4269 15.8333 13.0936 15.4999C12.7603 15.1665 12.2603 15.1666 11.9269 15.4999L10.1769 17.2499L9.01024 16.0832L11.9269 13.1665C12.2602 12.8332 12.2602 12.3332 11.9269 11.9998C11.5936 11.6664 11.0936 11.6665 10.7602 11.9998L7.84374 14.9167L6.59374 13.6667L8.34374 11.9167C8.67704 11.5834 8.67704 11.0834 8.34374 10.75C8.01044 10.4166 7.51044 10.4167 7.17704 10.75L5.42704 12.5L4.26034 11.3333L7.17704 8.4166C7.51034 8.0833 7.51034 7.5833 7.17704 7.2499C6.84374 6.9165 6.34374 6.9166 6.01034 7.2499L3.09374 10.1667L1.92704 9C1.59374 8.6667 1.59374 8.1667 1.92704 7.8333L7.84374 1.9167C8.01044 1.75 8.17704 1.6667 8.42704 1.6667C8.59374 1.6667 8.84374 1.75 9.01034 1.9167L23.8437 16.75L16.7604 23.8333L16.052 23.125ZM31.5104 11.5L34.4263 14.4158L6.71962 42.0426L3.84374 39.1667L31.5104 11.5ZM3.17704 40.8333L5.91102 43.5673C5.95262 43.6625 6.01327 43.7528 6.09374 43.8333L9.10604 46.8455L1.92714 48.0832L3.17704 40.8333ZM48.2604 41.5833L41.5937 48.25C41.5104 48.3333 41.2604 48.3333 41.177 48.25L32.552 39.625L35.5103 36.6667C35.8436 36.3334 35.8436 35.8334 35.5103 35.5C35.177 35.1667 34.677 35.1667 34.3436 35.5L31.3853 38.4583L30.177 37.25L31.927 35.5C32.2603 35.1667 32.2603 34.6667 31.927 34.3333C31.5937 34 31.0937 34 30.7603 34.3333L29.0103 36.0833L27.8436 34.9166L30.7603 31.9999C31.0936 31.6666 31.0936 31.1666 30.7603 30.8332C30.427 30.4999 29.927 30.4999 29.5936 30.8332L26.677 33.75L26.177 33.25L33.2603 26.1667L48.2603 41.1667C48.3437 41.25 48.3437 41.5 48.2604 41.5833Z" fill="#231F20"/>
</svg>
