<svg width="10" height="14" viewBox="0 0 10 14" fill="none" xmlns="http://www.w3.org/2000/svg">
<path d="M5 0C2.23958 0 0 2.23958 0 5C0 5.71181 0.138889 6.40625 0.434028 7.04861C1.68403 9.77431 4.07986 12.6736 4.79167 13.4896C4.84375 13.559 4.91319 13.5938 5 13.5938C5.08681 13.5938 5.15625 13.559 5.20833 13.4896C5.92014 12.6736 8.31597 9.79167 9.54861 7.04861C9.84375 6.40625 9.98264 5.72917 9.98264 5C10 2.23958 7.74306 0 5 0ZM5 7.58681C3.57639 7.58681 2.41319 6.42361 2.41319 5C2.41319 3.57639 3.57639 2.41319 5 2.41319C6.42361 2.41319 7.60417 3.57639 7.60417 5C7.58681 6.42361 6.42361 7.58681 5 7.58681Z" fill="white"/>
</svg>
