<svg width="108" height="46" viewBox="0 0 108 46" fill="none" xmlns="http://www.w3.org/2000/svg">
<path d="M107.3 45.2C107.3 45.2 105.7 44.6 102.8 43.4C101.4 42.7 99.6 42.2 97.6 41.5C95.6 40.7 93.3 40.1 90.8 39.4C90.2 39.2 89.5 39 88.9 38.8C88.2 38.6 87.6 38.5 86.9 38.3C85.5 38 84.1 37.6 82.7 37.3C81.3 37 79.8 36.8 78.2 36.5C76.7 36.2 75.1 35.9 73.5 35.7C71.9 35.5 70.3 35.3 68.7 35.1C67.1 34.9 65.4 34.8 63.7 34.7C62.9 34.6 62 34.6 61.2 34.5C60.4 34.5 59.5 34.5 58.7 34.4C57 34.4 55.3 34.3 53.6 34.3C51.9 34.3 50.2 34.4 48.5 34.4C47.6 34.4 46.8 34.4 45.9 34.5C45.1 34.6 44.2 34.6 43.4 34.7C41.7 34.9 40.1 34.9 38.4 35.1C36.8 35.3 35.1 35.5 33.6 35.7C32 35.9 30.5 36.2 28.9 36.5C27.4 36.8 25.9 37 24.4 37.3C23 37.6 21.6 38 20.2 38.3C19.5 38.5 18.9 38.6 18.2 38.8C17.6 39 16.9 39.2 16.3 39.4C13.8 40.2 11.5 40.8 9.5 41.5C7.5 42.2 5.7 42.8 4.3 43.4C1.7 44.5 0 45.2 0 45.2C0 45.2 1.5 44.2 4.2 42.6C5.5 41.7 7.2 40.9 9.2 39.9C9.7 39.7 10.2 39.4 10.7 39.1C11 39 11.2 38.8 11.5 38.7C11.8 38.6 12 38.5 12.3 38.3C13.4 37.8 14.6 37.4 15.8 36.9C16.4 36.6 17 36.4 17.7 36.1C18.4 35.9 19 35.7 19.7 35.4C21.1 35 22.5 34.5 23.9 34C25.4 33.6 26.9 33.2 28.4 32.8C29.9 32.4 31.5 32 33.1 31.8C34.7 31.5 36.4 31.2 38 30.9C39.7 30.7 41.4 30.5 43.1 30.3C44 30.2 44.8 30.1 45.7 30C46.6 29.9 47.4 29.9 48.3 29.9C50 29.8 51.8 29.8 53.5 29.7C55.3 29.8 57 29.8 58.7 29.9C59.6 29.9 60.4 29.9 61.3 30C62.2 30.1 63 30.2 63.9 30.3C65.6 30.5 67.3 30.6 69 30.9C70.7 31.2 72.3 31.5 73.9 31.8C75.5 32 77.1 32.5 78.6 32.8C80.1 33.2 81.7 33.5 83.1 34C84.5 34.5 86 34.9 87.3 35.4C88 35.6 88.6 35.9 89.3 36.1C89.9 36.4 90.6 36.6 91.2 36.9C92.4 37.4 93.6 37.9 94.7 38.3C95 38.4 95.3 38.5 95.5 38.7C95.8 38.8 96 39 96.3 39.1C96.8 39.4 97.3 39.6 97.8 39.9C99.7 40.9 101.5 41.7 102.8 42.6C105.8 44.2 107.3 45.2 107.3 45.2Z" fill="#41B619"/>
<path d="M74.4 0L63 8.3L51.7 0L40.4 8.2L29.2 0L6.40002 16.6V42.1L14 39V20.5L29.2 9.4L34 12.9L28.9 16.6V33.1H36.5V20.5L40.4 17.6L46.9 12.9L51.7 9.4L56.6 13L63 17.7L66.8 20.5V33.1H74.4V16.6L69.4 13L74.4 9.4L89.5 20.5V36.9L97.1 40.2V16.6L74.4 0Z" fill="#41B619"/>
</svg>
