<svg width="48" height="50" viewBox="0 0 48 50" fill="none" xmlns="http://www.w3.org/2000/svg">
<path d="M46.5 48.3333H41.5V0.833301C41.5 0.333301 41.1667 0 40.6667 0H7.33335C6.83335 0 6.50005 0.333301 6.50005 0.833301V48.3333H1.50005C1.00005 48.3333 0.666748 48.6666 0.666748 49.1666C0.666748 49.6666 1.00005 50 1.50005 50H7.33335H10.6666H37.3333H40.6666H46.5C47 50 47.3333 49.6667 47.3333 49.1667C47.3333 48.6667 47 48.3333 46.5 48.3333ZM11.5 48.3333V5H36.5V48.3333H11.5ZM38.1667 48.3333V4.1667C38.1667 3.6667 37.8334 3.3334 37.3334 3.3334H10.6667C10.1667 3.3334 9.83345 3.6667 9.83345 4.1667V48.3334H8.16675V1.6667H39.8334V48.3334H38.1667V48.3333Z" fill="#231F20"/>
<path d="M34.0001 24.1667H30.6668C30.1668 24.1667 29.8335 24.5 29.8335 25V25.8333H28.1668C27.6668 25.8333 27.3335 26.1666 27.3335 26.6666C27.3335 27.1666 27.6668 27.4999 28.1668 27.4999H29.8335V28.3332C29.8335 28.8332 30.1668 29.1665 30.6668 29.1665H34.0001C34.5001 29.1665 34.8334 28.8332 34.8334 28.3332V25C34.8334 24.5 34.5001 24.1667 34.0001 24.1667ZM33.1668 27.5H31.5001V25.8333H33.1668V27.5Z" fill="#231F20"/>
</svg>
