<svg width="51" height="51" viewBox="0 0 51 51" fill="none" xmlns="http://www.w3.org/2000/svg">
<path d="M48.4499 42.3299C43.3768 39.6397 39.4856 38.1312 36.0214 37.5528L36.3799 37.06C36.55 36.8899 36.6349 36.6349 36.55 36.3799L35.7534 33.1937C37.8602 30.2154 39.0999 26.4919 39.0999 22.95V19.55H39.9499H41.6499C42.1599 19.55 42.4999 19.21 42.4999 18.7C42.4999 18.19 42.1599 17.8501 41.6499 17.8501H40.7999V17.0001C40.7999 10.2851 36.3799 4.59014 29.7499 2.7201V2.54996C29.7499 1.18992 28.645 0 27.2 0H23.7999C22.4399 0 21.25 1.10495 21.25 2.54996V2.72C14.62 4.59004 10.2 10.285 10.2 17V17.85H9.35001C8.84001 17.85 8.50005 18.1899 8.50005 18.6999C8.50005 19.2099 8.84001 19.5499 9.35001 19.5499H11.05H11.9V22.9499C11.9 26.4918 13.1397 30.2153 15.2465 33.1937L14.4499 36.3799C14.4499 36.55 14.4499 36.8899 14.62 37.06L14.9785 37.5528C11.5144 38.1313 7.62306 39.6397 2.54996 42.3299C0.935021 43.095 0 44.71 0 46.4949V50.15C0 50.6599 0.339962 50.9999 0.849954 50.9999H21.25H21.5899H29.41H29.7499H50.15C50.6599 50.9999 50.9999 50.6599 50.9999 50.15V46.4949C51 44.7949 49.9799 43.18 48.4499 42.3299ZM24.9903 41.5432L25.5048 40.3854L26.7752 43.1805L27.6062 45.0499H23.4601L24.9903 41.5432ZM22.814 46.7499H28.1795L28.6652 49.2999H22.304L22.814 46.7499ZM34.4249 34.85L34.7649 36.3799L33.8966 37.5722C33.8412 37.6175 33.79 37.6723 33.7449 37.7399L30.2094 42.6353L29.0875 44.1757L26.796 39.0197C29.5351 38.6856 31.9803 37.3106 33.9551 35.3345C33.977 35.3129 33.999 35.2914 34.0208 35.2695C34.026 35.2641 34.0313 35.2588 34.0366 35.2534C34.1675 35.1221 34.297 34.9878 34.4249 34.85ZM33.3176 6.21683C33.4119 6.27962 33.5055 6.34342 33.5981 6.40843C34.6815 7.21585 35.6817 8.16171 36.465 9.17998L32.555 9.94496L33.3176 6.21683ZM18.445 9.94496L14.535 9.17998C15.3183 8.16161 16.3186 7.21575 17.402 6.40833C17.4945 6.34342 17.5881 6.27962 17.6825 6.21683L18.445 9.94496ZM11.9 17C11.9 14.7381 12.4694 12.6043 13.5 10.7395L19.38 11.9001C19.465 11.9001 19.465 11.9001 19.5501 11.9001C19.8051 11.9001 19.9751 11.8151 20.2301 11.73C20.4851 11.56 20.5701 11.22 20.4851 10.9651L19.3182 5.28586C19.9328 4.99015 20.5778 4.73617 21.2501 4.52735V6.80004C21.2501 7.31003 21.59 7.65 22.1 7.65C22.61 7.65 22.95 7.31003 22.95 6.80004V3.40002V2.54996C22.95 2.12494 23.2899 1.70001 23.7999 1.70001H27.2C27.625 1.70001 28.0499 2.03997 28.0499 2.54996V3.39992V6.79994C28.0499 7.30993 28.3899 7.64989 28.8999 7.64989C29.4099 7.64989 29.7498 7.30993 29.7498 6.79994V4.52735C30.4445 4.74306 31.1104 5.00676 31.7433 5.31513L30.5999 10.8801C30.5999 11.1351 30.6848 11.475 30.8549 11.6451C31.0249 11.8151 31.1948 11.9001 31.4498 11.9001C31.5348 11.9001 31.5348 11.9001 31.6199 11.9001L37.4618 10.6702C38.5166 12.5513 39.0998 14.7102 39.0998 17V17.85H38.2499H12.75H11.9001V17H11.9ZM13.6 19.55H37.3999V22.95C37.3999 26.6563 36.1285 29.9499 34.2196 32.4534L34.1699 32.4699C34.085 32.5549 33.9999 32.64 33.9149 32.7249C33.4873 33.2952 33.0359 33.8151 32.5643 34.2839C30.5629 36.1484 28.1757 37.2778 25.8755 37.3897C25.7597 37.34 25.6299 37.315 25.5 37.315C25.3693 37.315 25.2515 37.3406 25.1459 37.3908C23.7379 37.3262 22.2968 36.8799 20.9308 36.1164C19.5469 35.3214 18.2451 34.1752 17.0849 32.7249C16.9999 32.64 16.9148 32.5549 16.8299 32.4699L16.7802 32.4534C14.8713 29.9498 13.5999 26.6562 13.5999 22.95V19.55H13.6ZM24.2039 39.0199L21.9124 44.1759L20.7905 42.6355L17.255 37.7401C17.228 37.7131 17.198 37.6862 17.167 37.6598L16.235 36.38L16.575 34.8501C16.6902 34.9741 16.8071 35.095 16.9251 35.214C18.9205 37.2547 21.4092 38.6791 24.2039 39.0199ZM1.70001 46.4949C1.70001 45.39 2.29497 44.3699 3.31506 43.8599C8.73307 40.9815 12.6334 39.5369 16.1077 39.1054L21.1801 46.0798L20.5361 49.2998H1.70001V46.4949ZM49.3 49.3H30.464L29.82 46.08L34.9473 39.0301C38.4095 39.5525 42.3795 40.996 47.685 43.775C48.7049 44.37 49.3 45.3901 49.3 46.495V49.3Z" fill="#231F20"/>
</svg>
